<svg xmlns="http://www.w3.org/2000/svg" fill="none" viewBox="0 0 19 27"><path fill="#595653" d="M18 25.7h-.5v-.1a4 4 0 000-.3l-.1-.2v-.2l-.1-.2v-.1h-.1a6.7 6.7 0 000-.3H17v-.1a5.2 5.2 0 00-.1-.2v-.1h-.1v-.2h-.1v-.1l-.1-.1a11.5 11.5 0 000-.2h-.1v-.1l-.2-.1V23l-.1-.1v-.1h-.1v-.1l-.1-.2-.2-.1v-.1h-.1V22h-.1l-.3-.3-.1-.1-.1-.1a6.3 6.3 0 00-.4-.4h-.2V21l-.3-.2-.2-.1-.1-.1a8.3 8.3 0 00-1.2-.6l-.2-.1h1.2c.2 0 .4-.3.4-.5 0-.3-.2-.5-.4-.5h-.4l.1-.2c.4-.2 1-.6 1.6-1.4l.1-.2.1-.2.1-.1v-.2h.1l.1-.2a5.9 5.9 0 00.2-.2V16h.1v-.1a6.7 6.7 0 00.2-.3v-.4h.1V15a11.5 11.5 0 00.1-.2v-.1a7.2 7.2 0 00.1-.2v-.4h.1v-.2l.1-.2v-.2a16.3 16.3 0 00.1-.4v-.7l.1-.2v-.3a13 13 0 000-.2V9a29.2 29.2 0 00-.1-.6v-.3l-.1-.3C15.2-1.4 5.6.1 5.6.1l.3 2L0 7.9l.3 2.3 2.2 1.3.4-.7c1.4-1.5 4.2-2.8 5-3l.2-.1C4.3 12.4 4.7 17.7 5 19c-.2 0-.3.2-.3.5 0 .2.2.5.4.5h1.2a8.1 8.1 0 00-4.7 4.8v.2h-.1v.1a3.6 3.6 0 00-.1.3v.2H.6a.7.7 0 00-.5.3.7.7 0 00-.2.4.6.6 0 00.2.5.7.7 0 00.5.2H18a.7.7 0 00.5-.2.7.7 0 00.3-.5.6.6 0 00-.3-.4.7.7 0 00-.5-.2z"/></svg>